HIERARCHY
ROOT Hips
{
    OFFSET 0.000000 0.000000 0.000000
    CHANNELS 6 Xposition Yposition Zposition Zrotation Xrotation Yrotation
    JOINT Spine
    {
        OFFSET -0.000000 7.897928 0.000000
        CHANNELS 3 Zrotation Xrotation Yrotation
        JOINT Spine1
        {
            OFFSET -0.000000 22.881742 0.000000
            CHANNELS 3 Zrotation Xrotation Yrotation
            JOINT Neck
            {
                OFFSET -0.000000 22.787771 2.071616
                CHANNELS 3 Zrotation Xrotation Yrotation
                JOINT Head
                {
                    OFFSET -0.000000 13.484266 -1.926324
                    CHANNELS 3 Zrotation Xrotation Yrotation
                    End Site
                    {
                        OFFSET -0.000000 24.079046 0.000000
                    }
                }
            }
            JOINT LeftShoulder
            {
                OFFSET 3.854963 21.096247 -0.110468
                CHANNELS 3 Zrotation Xrotation Yrotation
                JOINT LeftArm
                {
                    OFFSET 10.572188 0.000000 0.000000
                    CHANNELS 3 Zrotation Xrotation Yrotation
                    JOINT LeftForeArm
                    {
                        OFFSET 34.932854 0.000000 0.000000
                        CHANNELS 3 Zrotation Xrotation Yrotation
                        JOINT LeftHand
                        {
                            OFFSET 23.279285 0.000000 0.000000
                            CHANNELS 3 Zrotation Xrotation Yrotation
                            End Site
                            {
                                OFFSET 14.447429 0.000000 0.000000
                            }
                        }
                    }
                }
            }
            JOINT RightShoulder
            {
                OFFSET -3.825334 21.096247 -0.110468
                CHANNELS 3 Zrotation Xrotation Yrotation
                JOINT RightArm
                {
                    OFFSET -10.572188 0.000000 0.000000
                    CHANNELS 3 Zrotation Xrotation Yrotation
                    JOINT RightForeArm
                    {
                        OFFSET -34.932854 0.000000 0.000000
                        CHANNELS 3 Zrotation Xrotation Yrotation
                        JOINT RightHand
                        {
                            OFFSET -23.279285 0.000000 0.000000
                            CHANNELS 3 Zrotation Xrotation Yrotation
                            End Site
                            {
                                OFFSET -14.447429 0.000000 0.000000
                            }
                        }
                    }
                }
            }
        }
    }
    JOINT LeftUpLeg
    {
        OFFSET 9.631618 0.000000 0.000000
        CHANNELS 3 Zrotation Xrotation Yrotation
        JOINT LeftLeg
        {
            OFFSET -0.000000 -35.385456 0.000000
            CHANNELS 3 Zrotation Xrotation Yrotation
            JOINT LeftFoot
            {
                OFFSET -0.000000 -43.284000 0.000000
                CHANNELS 3 Zrotation Xrotation Yrotation
                JOINT LeftToeBase
                {
                    OFFSET -0.000000 -6.260552 14.447429
                    CHANNELS 3 Zrotation Xrotation Yrotation
                    End Site
                    {
                        OFFSET -0.000000 0.000000 3.852648
                    }
                }
            }
        }
    }
    JOINT RightUpLeg
    {
        OFFSET -9.631618 0.000000 0.000000
        CHANNELS 3 Zrotation Xrotation Yrotation
        JOINT RightLeg
        {
            OFFSET -0.000000 -35.385456 0.000000
            CHANNELS 3 Zrotation Xrotation Yrotation
            JOINT RightFoot
            {
                OFFSET -0.000000 -43.284000 0.000000
                CHANNELS 3 Zrotation Xrotation Yrotation
                JOINT RightToeBase
                {
                    OFFSET -0.000000 -6.260552 14.447429
                    CHANNELS 3 Zrotation Xrotation Yrotation
                    End Site
                    {
                        OFFSET -0.000000 0.000000 3.852648
                    }
                }
            }
        }
    }
}
MOTION
Frames:    5
Frame Time:    0.008333
6.762634    87.622345    39.660610    2.231308    -1.617545    81.878746    5.608670    -5.008040    7.394382    -2.126788    5.883000    7.258241    -7.765374    13.005200    -16.669294    12.804992    4.083569    -15.799314    -1.982552    13.969888    12.050465    -77.569054    50.834152    28.101246    -16.999462    -15.854873    -82.827858    26.916325    -25.871513    18.456736    -7.597281    9.134188    15.076308    18.423378    26.623358    60.531563    -10.177135    -31.289024    61.725063    -27.860331    -24.611679    -5.895377    -0.363480    -9.055900    1.340087    -7.031441    14.512097    1.417246    4.079897    -11.156076    21.139748    0.000000    0.000000    0.000000    -10.916115    -5.241560    1.631001    21.343529    59.464836    -17.207294    2.887671    7.385837    1.769870    0.000000    0.000000    0.000000    
7.360812    87.865891    39.710026    2.189100    -1.972785    81.900627    5.857135    -5.136922    7.093240    -2.145624    6.311141    6.948602    -8.111620    12.251244    -16.480722    13.103228    4.863986    -15.592306    -1.885055    13.576506    12.394611    -77.617317    51.194199    27.778629    -16.706413    -16.221848    -82.898560    25.620581    -26.319313    17.838049    -7.644313    8.820004    15.281137    18.539934    26.760611    60.742790    -10.052265    -31.170120    62.033073    -27.492701    -24.544449    -5.868796    -0.050058    -8.306828    1.434190    -6.915339    14.081592    1.195235    3.347418    -11.831318    21.115974    0.000000    0.000000    0.000000    -10.343931    -6.594325    1.487160    22.222841    60.378895    -18.078520    2.782493    6.392489    1.719321    0.000000    0.000000    0.000000    
7.940581    88.115425    39.735199    2.061765    -2.201922    81.965218    5.689115    -5.142226    6.810772    -1.641257    6.121807    6.642891    -8.221380    12.385940    -16.272091    12.978144    4.745965    -15.378268    -2.085528    13.542340    12.410463    -77.789108    51.390781    27.606951    -16.239628    -16.763283    -82.910324    24.199692    -26.787846    17.156292    -7.737636    8.938569    15.453216    18.391504    26.991467    60.919121    -10.140388    -31.186390    62.133781    -26.935665    -24.594158    -5.572336    0.096626    -7.688620    1.639714    -6.700117    13.636555    0.971662    2.530842    -12.361346    21.064754    0.000000    0.000000    0.000000    -9.969847    -8.078022    1.288628    23.365044    61.170368    -19.104155    2.456849    5.663934    1.429884    0.000000    0.000000    0.000000    
8.539762    88.318932    39.751251    2.026706    -2.425550    82.046326    5.661077    -5.146649    6.540821    -1.443004    6.102970    6.363139    -8.158792    12.428971    -16.048800    12.874699    4.658734    -15.149903    -2.042819    13.439613    12.444924    -77.784348    51.682529    27.191105    -16.074411    -17.114937    -82.986900    23.430155    -27.120199    17.082840    -7.624919    9.080760    15.654861    18.149925    27.101635    61.077488    -10.199000    -31.156525    62.191185    -26.776415    -24.613262    -5.194025    0.244852    -6.981384    1.875226    -6.533884    13.193623    0.897951    1.457659    -12.959496    20.768566    0.000000    0.000000    0.000000    -9.675525    -9.387509    1.289538    24.943010    61.728664    -20.535616    1.632378    4.634574    1.080444    0.000000    0.000000    0.000000    
9.135053    88.511169    39.793510    2.025794    -2.675564    82.218384    5.656063    -5.096476    6.205884    -1.303159    6.062400    6.023001    -8.853820    12.332345    -15.904760    13.899408    5.144567    -14.923784    -2.023641    13.416574    12.436593    -77.762886    51.942818    26.817085    -15.828866    -17.583469    -83.058357    22.466454    -27.549253    16.845747    -7.544473    8.920938    15.804981    18.056805    27.483297    61.221485    -10.209705    -31.040556    62.356255    -26.769533    -24.500395    -5.035976    0.487786    -6.319613    2.168983    -6.451959    12.880500    0.804998    0.319685    -13.462594    20.409935    0.000000    0.000000    0.000000    -9.297031    -10.592919    1.255800    26.393623    62.046871    -22.124817    1.202628    3.813880    0.565009    0.000000    0.000000    0.000000    
